# xmcd
#
# Track frame offsets:
#	150
#	14742
#	28565
#	47794
#	62388
#	73999
#	89955
#	103275
#	117629
#	130611
#	146240
#	164239
#	175586
#	188711
#	200297
#	212883
#	227154
#	241268
#	256441
#	271918
#	286831
#	298478
#	317482
#
# Disc length: 4529 seconds
#
# Revision: 0
# Processed by: cddbd v1.5.2PL0 Copyright (c) Steve Scherf et al.
# Submitted via: dBpowerAMP V4.0
#
DISCID=7211af17
DTITLE=Chris LeDoux - Whatcha Gonna Do With A Cowboy/Under This Old Hat
DYEAR=2007
DGENRE=Country
TTITLE0=Call Of The Wild
TTITLE1=You Just Can't See Him From The Road
TTITLE2=Little Long-Haired Outlaw
TTITLE3=Making Ends Meet
TTITLE4=Whatcha Gonna Do With A Cowboy (Duet With Garth Brooks)
TTITLE5=Hooked On An Eight-Second Ride
TTITLE6=I'm Ready If You're Willing
TTITLE7=Look At You Girl
TTITLE8=Cadillac Ranch
TTITLE9=Western Skies
TTITLE10=The Double Diamond
TTITLE11=Under This Old Hat
TTITLE12=Get Back On That Pony
TTITLE13=Every Time I Roll The Dice
TTITLE14=Strugglin' Years
TTITLE15=Cowboys Like A Little Rock And Roll (Duet With Charlie Daniels)
TTITLE16=She's Tough
TTITLE17=Soft Place To Fall
TTITLE18=For Your Love
TTITLE19=Wild And Wooly
TTITLE20=Powder River Home
TTITLE21=Cadillac Ranch (Dance Club Version)
TTITLE22=Photo Finish
EXTD=
EXTT0=
EXTT1=
EXTT2=
EXTT3=
EXTT4=
EXTT5=
EXTT6=
EXTT7=
EXTT8=
EXTT9=
EXTT10=
EXTT11=
EXTT12=
EXTT13=
EXTT14=
EXTT15=
EXTT16=
EXTT17=
EXTT18=
EXTT19=
EXTT20=
EXTT21=
EXTT22=
PLAYORDER=
